<?xml version="1.0" encoding="UTF-8" standalone="no"?>
<svg
   id="Layer_1"
   data-name="Layer 1"
   viewBox="0 0 122.88 122.88"
   version="1.1"
   width="122.88"
   height="122.88"
   xmlns="http://www.w3.org/2000/svg"
   xmlns:svg="http://www.w3.org/2000/svg"
   xmlns:rdf="http://www.w3.org/1999/02/22-rdf-syntax-ns#"
   xmlns:cc="http://creativecommons.org/ns#"
   xmlns:dc="http://purl.org/dc/elements/1.1/">
  <defs
     id="defs1">
    <style
       id="style1">.cls-1{fill-rule:evenodd;}</style>
  </defs>
  <path
     class="cls-1"
     d="m 27.852608,45.889154 q 3.72,-4.22 7.69,-8 a 45.71,45.71 0 0 1 -2.19,-12 c -0.23,-7.24 0.88,-14.93 5,-20.9999996 1.15,-1.82 3.15,-4.86000005 5.32,-4.61000005 1.83,0.24 2.83,2.83000005 3.55,4.32000005 4.92,9.9999996 5.93,20.5399996 0.25,31.9299996 a 46,46 0 0 1 -7.84,10.8 l 2.38,12.12 a 8.74,8.74 0 0 1 0.87,-0.14 14.2,14.2 0 0 1 8.56,1.41 c 5.6,3 9.08,10.57 8.52,16.83 -0.5,5.5 -3,9.3 -7.15,12.63 a 23.92,23.92 0 0 1 -4.24,2.78 l 2.87,14.619996 a 28.07,28.07 0 0 1 0.12,3.74 c -0.35,7.71 -6.35,12.16 -13.78,11.82 -5.72,-0.36 -11.67,-4.9 -11.7,-10.64 -0.06,-11.13 15,-10.6 13.9,-0.42 -0.32,3 -2.51,5.65 -7.21,5.82 3.79,6.28 15.51,1.79 16.31,-6.44 a 17.52,17.52 0 0 0 -0.69,-6.24 l -2.17,-11.289996 a 17.7,17.7 0 0 1 -3.07,0.67 23.71,23.71 0 0 1 -18.15,-5.66 26,26 0 0 1 -8,-24.34 c 1.5,-7.63 5.89,-13.06 10.85,-18.71 z m 9.81,-9.53 c -2.07,-7.53 -1.76,-17.08 3.57,-23.32 5.33,-6.2399996 11.21,2.24 3.45,14.66 a 48.8,48.8 0 0 1 -7,8.66 z m 0,13 c -0.67,0.67 -1.36,1.34 -2.06,2 -4,3.85 -8,7.52 -11,13 a 20.65,20.65 0 0 0 -1.5,17.23 c 2.4,7.49 14,12.21 22.65,9.94 l -4.53,-23.62 a 9.82,9.82 0 0 0 -7.09,8 8.7,8.7 0 0 0 3.08,7.81 16.74,16.74 0 0 0 1.81,1.36 c 1.24,0.82 0.63,1.41 -0.53,1.06 -3.87,-1.3 -6.19,-3.44 -7.43,-6.17 -3.67,-8.08 0.83,-17.08 8.66,-19.92 l -2.06,-10.7 z m 10.47,41.35 -4.54,-23.19 a 9,9 0 0 1 4.53,1 12,12 0 0 1 6.62,8.23 c 1.2,5.57 -1.7,11.72 -6.49,13.94 l -0.12,0.05 z"
     id="path1" />
  <path
     d="m 80.801941,42.938202 q -2.976,1.344 -5.28,1.344 -2.208,0 -4.032,-0.864 -1.824,-0.96 -3.168,-2.4 -1.248,-1.44 -2.016,-3.072 -0.672,-1.632 -0.672,-3.072 0,-3.264 2.112,-5.76 2.208,-2.592 5.472,-4.32 3.36,-1.824 7.296,-2.688 4.032,-0.96 7.776,-0.96 4.128,0 8.16,1.44 4.031999,1.344 7.103999,3.936 3.072,2.496 4.992,5.952 1.92,3.36 1.92,7.392 0,3.168 -1.344,6.048 -1.248,2.784 -3.264,5.472 -2.016,2.592 -4.416,5.184 -2.303999,2.496 -4.415999,5.088 -2.016,2.592 -3.552,5.28 -1.44,2.688 -1.632,5.664 0,2.4 2.784,2.4 h 2.688 l 0.768,5.088 -2.016,2.592 -1.44,0.48 q -1.056,0.384 -1.92,0.48 -0.768,0.096 -1.248,0.096 -2.208,0 -4.608,-0.672 -2.304,-0.768 -4.32,-2.208 -1.92,-1.44 -3.264,-3.456 -1.248,-2.112 -1.248,-4.8 0,-3.456 1.344,-6.72 1.44,-3.36 3.456,-6.432 2.016,-3.168 4.416,-5.952 2.496,-2.88 4.512,-5.376 2.016,-2.496 3.36,-4.608 1.44,-2.208 1.44,-4.032 0,-0.864 -0.384,-1.92 -0.384,-1.056 -1.344,-1.92 -0.864,-0.864 -2.304,-1.44 -1.44,-0.672 -3.456,-0.672 -0.48,0 -2.496,0.096 -1.92,0 -4.032,0.288 -2.112,0.192 -3.84,0.576 -1.632,0.384 -1.632,0.96 0,0.864 0.864,1.632 0.864,0.768 2.88,1.824 z m 8.16,45.792 q 1.536,0 2.976,0.672 1.44,0.576 2.496,1.728 1.152,1.056 1.728,2.496 0.672,1.44 0.672,2.976 0,1.44 -0.672,2.784 -0.672,1.439998 -1.728,2.495998 -1.056,1.152 -2.496,1.728 -1.344,0.672 -2.88,0.672 -1.536,0 -3.072,-0.576 -1.44,-0.48 -2.592,-1.536 -1.152,-0.96 -1.824,-2.303998 -0.672,-1.248 -0.672,-2.88 0,-3.456 2.208,-5.856 2.208,-2.4 5.856,-2.4 z"
     id="path2" />
</svg>
